<svg xmlns="http://www.w3.org/2000/svg" width="620" height="300" viewBox="0 0 620 300" role="img">
  <style>
    text { font-family: Inter, Arial, sans-serif; fill: #1f2937; }
    .small { font-size: 13px; }
    .label { font-size: 15px; font-weight: 600; }
    .title { font-size: 18px; font-weight: 700; }
    .cell { fill: #ffffff; stroke: #111827; stroke-width: 1.4; }
    .given { fill: #e0f2fe; }
    .mark { fill: #fef3c7; }
    .blocked { fill: #fee2e2; }
    .filled { fill: #111827; }
    .empty { fill: #ffffff; }
    .accent { fill: #dcfce7; }
    .line { stroke: #374151; stroke-width: 2; fill: none; }
    .dash { stroke: #ef4444; stroke-width: 2; stroke-dasharray: 6 5; fill: none; }
  </style>

  <text class="title" x="28" y="34">区域锁定：候选都在同一行</text>
  <rect class="cell " x="58" y="62" width="52" height="52" />
<rect class="cell " x="110" y="62" width="52" height="52" />
<rect class="cell " x="162" y="62" width="52" height="52" />
<rect class="cell " x="214" y="62" width="52" height="52" />
<rect class="cell mark" x="58" y="114" width="52" height="52" />
<text class="label" x="84" y="145" text-anchor="middle">R</text>
<rect class="cell mark" x="110" y="114" width="52" height="52" />
<text class="label" x="136" y="145" text-anchor="middle">R</text>
<rect class="cell mark" x="162" y="114" width="52" height="52" />
<text class="label" x="188" y="145" text-anchor="middle">R</text>
<rect class="cell blocked" x="214" y="114" width="52" height="52" />
<text class="label" x="240" y="145" text-anchor="middle">X</text>
<rect class="cell " x="58" y="166" width="52" height="52" />
<rect class="cell " x="110" y="166" width="52" height="52" />
<rect class="cell " x="162" y="166" width="52" height="52" />
<rect class="cell " x="214" y="166" width="52" height="52" />
<rect class="cell " x="58" y="218" width="52" height="52" />
<rect class="cell " x="110" y="218" width="52" height="52" />
<rect class="cell " x="162" y="218" width="52" height="52" />
<rect class="cell " x="214" y="218" width="52" height="52" />
  <path class="dash" d="M58 114 H214 V166 H58 Z" />
  <text class="small" x="300" y="97">某区域的候选全在第 2 行。</text>
  <text class="small" x="300" y="129">该行需要的星会由这个区域贡献。</text>
  <text class="small" x="300" y="161">同一行其他区域格可划 X。</text>
  <text class="small" x="58" y="286">rowColRegionLock 处理这类排他。</text>

</svg>
