<svg xmlns="http://www.w3.org/2000/svg" width="680" height="250" viewBox="0 0 680 250" role="img">
  <style>
    text { font-family: Inter, Arial, sans-serif; fill: #1f2937; }
    .small { font-size: 13px; }
    .label { font-size: 15px; font-weight: 600; }
    .title { font-size: 18px; font-weight: 700; }
    .cell { fill: #ffffff; stroke: #111827; stroke-width: 1.4; }
    .given { fill: #e0f2fe; }
    .mark { fill: #fef3c7; }
    .blocked { fill: #fee2e2; }
    .filled { fill: #111827; }
    .empty { fill: #ffffff; }
    .accent { fill: #dcfce7; }
    .line { stroke: #374151; stroke-width: 2; fill: none; }
    .dash { stroke: #ef4444; stroke-width: 2; stroke-dasharray: 6 5; fill: none; }
  </style>

  <text class="title" x="28" y="34">重叠法：长度 7 的线索 [4]</text>
  <rect class="cell accent" x="54" y="68" width="48" height="48" />
<rect class="cell accent" x="102" y="68" width="48" height="48" />
<rect class="cell accent" x="150" y="68" width="48" height="48" />
<rect class="cell accent" x="198" y="68" width="48" height="48" />
<rect class="cell " x="246" y="68" width="48" height="48" />
<rect class="cell " x="294" y="68" width="48" height="48" />
<rect class="cell " x="342" y="68" width="48" height="48" />
  <text class="small" x="54" y="55">最靠左放法</text>
  <rect class="cell " x="54" y="150" width="48" height="48" />
<rect class="cell " x="102" y="150" width="48" height="48" />
<rect class="cell " x="150" y="150" width="48" height="48" />
<rect class="cell accent" x="198" y="150" width="48" height="48" />
<rect class="cell accent" x="246" y="150" width="48" height="48" />
<rect class="cell accent" x="294" y="150" width="48" height="48" />
<rect class="cell accent" x="342" y="150" width="48" height="48" />
  <text class="small" x="54" y="137">最靠右放法</text>
  <rect class="cell filled" x="198" y="109" width="48" height="48" />
  <text class="small" x="288" y="139">所有合法放法都覆盖的格子必为黑格。</text>

</svg>
